{"title":"Dhoom Machale Dhoom - DHOOM 3 - Aamir Khan - Abhishek Bachchan -","uid":9193836,"size":118760136,"categoryP":"video","categoryS":"music_videos","magnet":"?xt=urn:btih:975629a92ef5ae16c466636b245a7c07c88d37eb&amp;dn=Dhoom+Machale+Dhoom+-+DHOOM+3+-+Aamir+Khan+-+Abhishek+Bachchan+-&amp;tr=udp%3A%2F%2Ftracker.openbittorrent.com%3A80&amp;tr=udp%3A%2F%2Fopen.demonii.com%3A1337&amp;tr=udp%3A%2F%2Ftracker.coppersurfer.tk%3A6969&amp;tr=udp%3A%2F%2Fexodus.desync.com%3A6969","seeders":1,"leechers":0,"uploader":"Palash995","files":11,"time":1384444795,"description":"Dhoom Machale Dhoom - DHOOM 3 - Aamir Khan - Abhishek Bachchan - Katrina Kaif HD 1080p {GreatPalash}\n &lt;a href=&quot;\nhttp://imageshack.us/a/img89/4779/cu5a.jpg&quot; rel=&quot;nofollow&quot; target=&quot;_NEW&quot;&gt;\nhttp://imageshack.us/a/img89/4779/cu5a.jpg&lt;/a&gt;\n\nPresenting the sensational and most anticipated song of the year DHOOM MACHALE DHOOM from the most awaited film of 2013 - DHOOM:3. \n\nSong: Dhoom Machale Dhoom\nSinger: Aditi Singh Sharma\nMusic: Pritam\nLyrics: Sameer Anjaan\n\nStarring Aamir Khan, Abhishek Bachchan, Katrina Kaif &amp; Uday Chopra.\n\nDHOOM:3 Film releases on 20th December 2013.\n\nProduced by Aditya Chopra, DHOOM:3 is written and directed by Vijay Krishna Acharya, who had also written DHOOM &amp; DHOOM:2. Apart from Aamir Khan, who plays the anti-hero in the film, and Katrina Kaif, both Abhishek Bachchan and Uday Chopra will continue in their now iconic roles of Jai Dixit and Ali.\n\nSceenshots:-\n &lt;a href=&quot;\nhttp://imageshack.us/a/img34/6670/f6ne.jpg&quot; rel=&quot;nofollow&quot; target=&quot;_NEW&quot;&gt;\nhttp://imageshack.us/a/img34/6670/f6ne.jpg&lt;/a&gt;\n &lt;a href=&quot;\nhttp://imageshack.us/a/img191/646/gcgr.jpg&quot; rel=&quot;nofollow&quot; target=&quot;_NEW&quot;&gt;\nhttp://imageshack.us/a/img191/646/gcgr.jpg&lt;/a&gt;\n &lt;a href=&quot;\nhttp://imageshack.us/a/img43/4227/j46f.jpg&quot; rel=&quot;nofollow&quot; target=&quot;_NEW&quot;&gt;\nhttp://imageshack.us/a/img43/4227/j46f.jpg&lt;/a&gt;\n &lt;a href=&quot;\nhttp://imageshack.us/a/img51/629/9z7z.jpg&quot; rel=&quot;nofollow&quot; target=&quot;_NEW&quot;&gt;\nhttp://imageshack.us/a/img51/629/9z7z.jpg&lt;/a&gt;\n\nMedia Info:-\n\nGeneral\nComplete name                            : Dhoom Machale Dhoom - DHOOM 3 - Aamir Khan - Abhishek Bachchan - Katrina Kaif HD 1080p {DAKU RG} {GreatPalash}.mp4\nFormat                                   : MPEG-4\nFormat profile                           : Base Media\nCodec ID                                 : isom\nFile size                                : 113 MiB\nDuration                                 : 3mn 35s\nOverall bit rate mode                    : Variable\nOverall bit rate                         : 4369 Kbps\nWriting application                      : Lavf53.31.100\n\nVideo\nID                                       : 1\nFormat                                   : AVC\nFormat/Info                              : Advanced Video Codec\nFormat profile                           : &lt;a class=&quot;__cf_email__&quot; href=&quot;/cdn-cgi/l/email-protection&quot; data-cfemail=&quot;246c4d434c6468100a15&quot;&gt;[email&amp;#160;protected]&lt;/a&gt;&lt;script cf-hash='f9e31' type=&quot;text/javascript&quot;&gt;\n/* &lt;![CDATA[ */!function(){try{var t=&quot;currentScript&quot;in document?document.currentScript:function(){for(var t=document.getElementsByTagName(&quot;script&quot;),e=t.length;e--;)if(t[e].getAttribute(&quot;cf-hash&quot;))return t[e]}();if(t&amp;&amp;t.previousSibling){var e,r,n,i,c=t.previousSibling,a=c.getAttribute(&quot;data-cfemail&quot;);if(a){for(e=&quot;&quot;,r=parseInt(a.substr(0,2),16),n=2;a.length-n;n+=2)i=parseInt(a.substr(n,2),16)^r,e+=String.fromCharCode(i);e=document.createTextNode(e),c.parentNode.replaceChild(e,c)}}}catch(u){}}();/* ]]&gt; */&lt;/script&gt;\nFormat settings, CABAC                   : Yes\nFormat settings, ReFrames                : 3 frames\nCodec ID                                 : avc1\nCodec ID/Info                            : Advanced Video Coding\nDuration                                 : 3mn 35s\nBit rate mode                            : Variable\nBit rate                                 : 4 110 Kbps\nMaximum bit rate                         : 19.2 Mbps\nWidth                                    : 1920 pixels\nHeight                                   : 1080 pixels\nDisplay aspect ratio                     : 16:9\nFrame rate mode                          : Constant\nFrame rate                               : 24.000 fps\nStandard                                 : NTSC\nColor space                              : YUV\nChroma subsampling                       : 4:2:0\nBit depth                                : 8 bits\nScan type                                : Progressive\nBits/(Pixel*Frame)                       : 0.083\nStream size                              : 106 MiB (94%)\nColor primaries                          : BT.709\nTransfer characteristics                 : BT.709\nMatrix coefficients                      : BT.709\n\nAudio\nID                                       : 2\nFormat                                   : AAC\nFormat/Info                              : Advanced Audio Codec\nFormat profile                           : LC\nCodec ID                                 : 40\nDuration                                 : 3mn 35s\nBit rate mode                            : Constant\nBit rate                                 : 254 Kbps\nChannel(s)                               : 2 channels\nChannel positions                        : Front: L R\nSampling rate                            : 44.1 KHz\nCompression mode                         : Lossy\nStream size                              : 6.53 MiB (6%)\n &lt;a href=&quot;\nhttp://imageshack.us/a/img89/4822/zka.gif&quot; rel=&quot;nofollow&quot; target=&quot;_NEW&quot;&gt;\nhttp://imageshack.us/a/img89/4822/zka.gif&lt;/a&gt;\n &lt;a href=&quot;\nhttp://imageshack.us/a/img200/185/tj8.gif&quot; rel=&quot;nofollow&quot; target=&quot;_NEW&quot;&gt;\nhttp://imageshack.us/a/img200/185/tj8.gif&lt;/a&gt;\n &lt;a href=&quot;\nhttp://imageshack.us/a/img593/9603/ua8.gif&quot; rel=&quot;nofollow&quot; target=&quot;_NEW&quot;&gt;\nhttp://imageshack.us/a/img593/9603/ua8.gif&lt;/a&gt;\n &lt;a href=&quot;\nhttp://imageshack.us/a/img707/5608/ysmp.png&quot; rel=&quot;nofollow&quot; target=&quot;_NEW&quot;&gt;\nhttp://imageshack.us/a/img707/5608/ysmp.png&lt;/a&gt;","torrent":{"xt":"urn:btih:975629a92ef5ae16c466636b245a7c07c88d37eb","amp;dn":"Dhoom+Machale+Dhoom+-+DHOOM+3+-+Aamir+Khan+-+Abhishek+Bachchan+-","amp;tr":["udp%3A%2F%2Ftracker.openbittorrent.com%3A80","udp%3A%2F%2Fopen.demonii.com%3A1337","udp%3A%2F%2Ftracker.coppersurfer.tk%3A6969","udp%3A%2F%2Fexodus.desync.com%3A6969"],"infoHash":"975629a92ef5ae16c466636b245a7c07c88d37eb","infoHashBuffer":{"type":"Buffer","data":[151,86,41,169,46,245,174,22,196,102,99,107,36,90,124,7,200,141,55,235]},"announce":[],"urlList":[]}}